<mxfile host="app.diagrams.net" modified="2024-04-16T16:38:38.648Z" agent="Mozilla/5.0 (Windows NT 10.0; Win64; x64) AppleWebKit/537.36 (KHTML, like Gecko) Chrome/121.0.0.0 Safari/537.36" version="24.2.5" etag="op5afcU4j-z-Vh3Fj4lh" type="github">
  <diagram name="Trang-1" id="x6wNNYEnaFfuTSSmIDJT">
    <mxGraphModel>
      <root>
        <mxCell id="0" />
        <mxCell id="1" parent="0" />
      </root>
    </mxGraphModel>
  </diagram>
</mxfile>
